<svg width="101" height="28" viewBox="0 0 101 28" fill="none" xmlns="http://www.w3.org/2000/svg">
<g clip-path="url(#clip0_7234_3784)">
<path d="M48.1894 14.2479C47.416 13.8414 46.5394 13.4349 45.6628 13.13C44.7862 12.876 44.0127 12.5711 43.3424 12.3678C42.6721 12.1138 42.1564 11.8597 41.7955 11.504C41.4345 11.1991 41.2798 10.7418 41.2798 10.1829C41.2798 9.52233 41.4861 9.01421 41.9501 8.70933C42.4142 8.35364 43.033 8.2012 43.7033 8.2012C44.5284 8.2012 45.1471 8.45526 45.6112 8.91258C46.0753 9.36989 46.2815 9.87802 46.3331 10.4878V10.6402H50.3551V10.437C50.3036 9.31908 49.9942 8.35363 49.4785 7.54063C48.9113 6.72763 48.1378 6.11789 47.1581 5.66057C46.1784 5.20326 45.044 5 43.8065 5C42.5689 5 41.4345 5.20326 40.5064 5.66057C39.5266 6.11789 38.7532 6.72763 38.2375 7.54063C37.6703 8.35363 37.4125 9.31908 37.4125 10.437C37.4125 11.7581 37.825 12.8251 38.5985 13.6381C39.3719 14.4003 40.5064 15.0609 41.9501 15.569L44.4252 16.382C45.1987 16.6361 45.7659 16.941 46.23 17.3475C46.6425 17.754 46.8487 18.2621 46.8487 18.9735C46.8487 19.634 46.5909 20.1422 46.1268 20.5487C45.6112 20.9552 44.9409 21.1584 44.1158 21.1584C43.1361 21.1584 42.3627 20.9044 41.7955 20.3454C41.2283 19.7865 40.9189 19.1259 40.9189 18.3129V18.1605H37V18.3637C37 19.634 37.3609 20.7011 37.9797 21.6157C38.5985 22.4795 39.4751 23.1909 40.5064 23.6482C41.5892 24.1055 42.8267 24.3596 44.1674 24.3596C45.6112 24.3596 46.8488 24.1055 47.8285 23.5974C48.8082 23.0893 49.5817 22.3779 50.0973 21.5649C50.6129 20.7011 50.8708 19.7865 50.8708 18.821C50.8708 17.7032 50.6129 16.7885 50.1489 16.0772C49.5817 15.2642 48.9629 14.7052 48.1894 14.2479Z" fill="white"/>
<path d="M71.3931 10.6914H67.6289V24.0043H71.3931V10.6914Z" fill="white"/>
<path d="M81.7583 10.335C80.6754 10.335 79.7473 10.589 78.9222 11.0463C78.3035 11.402 77.7878 11.9102 77.3753 12.4691L77.1691 10.6398H73.8174V24.0035H77.5816V17.1438C77.5816 16.026 77.891 15.1114 78.4582 14.5016C79.0254 13.8918 79.7473 13.587 80.6754 13.587C81.6036 13.587 82.2739 13.841 82.6864 14.4C83.0989 14.9589 83.3568 15.7719 83.3568 16.839V24.0035H87.1209V16.4833C87.1209 14.5016 86.6569 12.9772 85.7287 11.9102C84.749 10.8939 83.4083 10.335 81.7583 10.335Z" fill="white"/>
<path d="M99.8051 17.6012C99.1863 17.1439 98.5675 16.7374 97.7425 16.4833C96.969 16.2292 96.0924 15.9752 95.2158 15.7719C94.3908 15.5687 93.7205 15.3654 93.2048 15.1622C92.7408 14.9589 92.5345 14.7048 92.5345 14.4C92.5345 14.0951 92.6892 13.841 92.9986 13.6378C93.308 13.4345 93.772 13.2821 94.3392 13.2821C95.5252 13.2821 96.1956 13.6886 96.3502 14.5524L96.4018 14.7048H99.9597L99.9082 14.5016C99.7019 13.1805 99.1347 12.1642 98.2066 11.4528C97.2268 10.6907 95.9377 10.335 94.3908 10.335C92.6892 10.335 91.297 10.7415 90.3688 11.5545C89.3891 12.3675 88.925 13.3837 88.925 14.6032C88.925 15.2638 89.0797 15.8227 89.3891 16.28C89.6985 16.7374 90.111 17.093 90.6266 17.3979C91.1423 17.652 91.6579 17.906 92.2767 18.0585C92.8955 18.2109 93.4627 18.3634 94.0299 18.5158C94.9065 18.719 95.5768 18.9223 96.0924 19.0747C96.5049 19.2272 96.7112 19.5829 96.7112 20.0402C96.7112 20.3959 96.5565 20.6499 96.2471 20.904C95.9377 21.1581 95.4221 21.3105 94.7518 21.3105C94.0299 21.3105 93.4627 21.158 93.0501 20.8024C92.6376 20.4467 92.3282 20.091 92.2767 19.6337L92.2251 19.4812H88.4609V19.6845C88.5641 20.5991 88.925 21.4121 89.4407 22.0727C90.0079 22.7332 90.7298 23.2922 91.6579 23.6987C92.5345 24.1052 93.6173 24.2576 94.8033 24.2576C95.9893 24.2576 96.969 24.0544 97.8456 23.6987C98.7222 23.343 99.3925 22.7841 99.8566 22.1235C100.321 21.4629 100.527 20.7007 100.527 19.8369C100.527 18.8715 100.269 18.1093 99.8051 17.6012Z" fill="white"/>
<path d="M61.0805 10.6401L56.646 16.3819V15.6197V10.4876V5.20312H52.8818V24.0038H56.646V21.0058V18.4805L61.0805 24.0038H65.6182L60.1008 17.3474L65.6182 10.6401H61.0805Z" fill="white"/>
<path d="M69.4864 9.57313C70.7679 9.57313 71.8068 8.5494 71.8068 7.28657C71.8068 6.02373 70.7679 5 69.4864 5C68.2049 5 67.166 6.02373 67.166 7.28657C67.166 8.5494 68.2049 9.57313 69.4864 9.57313Z" fill="white"/>
<rect width="28" height="28" rx="8" fill="#4BF364"/>
<path d="M23.3902 11.3739C22.9829 7.21706 19.4282 4 15.0588 4C11.1708 4 7.91227 6.57364 6.96804 10.0727C6.81622 10.6402 6.23857 14.9308 5.73498 17.7141C5.17585 20.7974 4.60561 21.9794 4.50563 22.9373C4.4686 23.2987 4.61672 23.5879 4.87592 23.8048C5.13512 24.0217 5.5054 24.0578 5.87569 23.9132C7.27907 23.2301 8.70097 22.2469 9.71926 21.1444C9.89329 20.8986 10.1858 20.7359 10.5154 20.7359C10.8079 20.7359 11.0671 20.8625 11.2448 21.0613C11.3633 21.195 11.4559 21.4625 11.4818 21.6071C11.5485 22.0806 11.4226 22.5541 11.504 23.118C11.5781 23.5156 11.8373 23.8048 12.2076 23.9132C12.5038 24.0217 12.8741 23.9855 13.1703 23.8048C14.3738 23.1506 15.9067 21.0902 16.003 20.9926C16.1622 20.8335 16.3696 20.7359 16.6288 20.7359C16.8732 20.7359 17.1435 20.8299 17.3138 20.9781C17.3805 21.036 17.5212 21.2203 17.5841 21.3721C17.8396 21.8926 17.873 22.518 18.0581 23.1939C18.2062 23.7 18.6506 23.9892 19.1319 23.9892C19.4171 23.9892 19.6837 23.9024 19.8947 23.7108C21.9017 22.0408 24.0086 17.1574 23.3902 11.3739ZM14.096 15.3862C13.7628 15.6754 13.3925 15.82 13.0222 15.82C11.6151 15.82 10.9856 13.9765 11.0967 12.2053C11.1708 10.5787 11.8743 8.95211 13.0963 8.73523C13.1703 8.73523 13.2444 8.69908 13.3184 8.69908C14.4293 8.69908 15.5772 10.1088 15.5031 12.2053C15.4661 13.5066 14.9107 14.7356 14.096 15.3862ZM19.9466 15.3862C19.6133 15.6754 19.243 15.82 18.8727 15.82C17.4656 15.82 16.8362 13.9765 16.9472 12.2053C17.0213 10.5787 17.7248 8.95211 18.9468 8.73523C19.0209 8.73523 19.0949 8.69908 19.169 8.69908C20.2798 8.69908 21.4277 10.1088 21.3537 12.2053C21.3166 13.5066 20.7612 14.7356 19.9466 15.3862Z" fill="#10151E"/>
</g>
<defs>
<clipPath id="clip0_7234_3784">
<rect width="101" height="28" fill="white"/>
</clipPath>
</defs>
</svg>
